<?xml version="1.0" encoding="UTF-8" standalone="no"?>
<!-- Created with Inkscape (http://www.inkscape.org/) -->

<svg
   xmlns:osb="http://www.openswatchbook.org/uri/2009/osb"
   xmlns:dc="http://purl.org/dc/elements/1.1/"
   xmlns:cc="http://creativecommons.org/ns#"
   xmlns:rdf="http://www.w3.org/1999/02/22-rdf-syntax-ns#"
   xmlns:svg="http://www.w3.org/2000/svg"
   xmlns="http://www.w3.org/2000/svg"
   xmlns:sodipodi="http://sodipodi.sourceforge.net/DTD/sodipodi-0.dtd"
   xmlns:inkscape="http://www.inkscape.org/namespaces/inkscape"
   width="297mm"
   height="210mm"
   viewBox="0 0 297 210"
   version="1.1"
   id="svg8"
   sodipodi:docname="drawing.svg"
   inkscape:version="0.92.4 (5da689c313, 2019-01-14)">
  <defs
     id="defs2">
    <linearGradient
       id="linearGradient3453"
       osb:paint="solid">
      <stop
         style="stop-color:#f6f6f6;stop-opacity:1;"
         offset="0"
         id="stop3451" />
    </linearGradient>
    <inkscape:path-effect
       effect="bspline"
       id="path-effect870"
       is_visible="true"
       weight="33.333333"
       steps="2"
       helper_size="0"
       apply_no_weight="true"
       apply_with_weight="true"
       only_selected="false" />
    <inkscape:path-effect
       effect="bspline"
       id="path-effect858"
       is_visible="true"
       weight="33.333333"
       steps="2"
       helper_size="0"
       apply_no_weight="true"
       apply_with_weight="true"
       only_selected="false" />
    <inkscape:path-effect
       effect="bspline"
       id="path-effect6459"
       is_visible="true"
       weight="33.333333"
       steps="2"
       helper_size="0"
       apply_no_weight="true"
       apply_with_weight="true"
       only_selected="false" />
    <inkscape:path-effect
       effect="bspline"
       id="path-effect6455"
       is_visible="true"
       weight="33.333333"
       steps="2"
       helper_size="0"
       apply_no_weight="true"
       apply_with_weight="true"
       only_selected="false" />
    <marker
       inkscape:stockid="EmptyDiamondL"
       orient="auto"
       refY="0.0"
       refX="0.0"
       id="EmptyDiamondL"
       style="overflow:visible"
       inkscape:isstock="true">
      <path
         id="path4666"
         d="M 0,-7.0710768 L -7.0710894,0 L 0,7.0710589 L 7.0710462,0 L 0,-7.0710768 z "
         style="fill-rule:evenodd;fill:#FFFFFF;stroke:#000000;stroke-width:1.0pt"
         transform="scale(0.8)" />
    </marker>
    <linearGradient
       id="linearGradient4834"
       osb:paint="solid">
      <stop
         style="stop-color:#c3ceca;stop-opacity:1;"
         offset="0"
         id="stop4832" />
    </linearGradient>
    <marker
       inkscape:stockid="Arrow1Lend"
       orient="auto"
       refY="0.0"
       refX="0.0"
       id="Arrow1Lend"
       style="overflow:visible;"
       inkscape:isstock="true">
      <path
         id="path4563"
         d="M 0.0,0.0 L 5.0,-5.0 L -12.5,0.0 L 5.0,5.0 L 0.0,0.0 z "
         style="fill-rule:evenodd;stroke:#000000;stroke-width:1.0pt;"
         transform="scale(0.8) rotate(180) translate(12.5,0)" />
    </marker>
    <inkscape:path-effect
       effect="bspline"
       id="path-effect6459-1"
       is_visible="true"
       weight="33.333333"
       steps="2"
       helper_size="0"
       apply_no_weight="true"
       apply_with_weight="true"
       only_selected="false" />
    <inkscape:path-effect
       effect="bspline"
       id="path-effect6459-1-1"
       is_visible="true"
       weight="33.333333"
       steps="2"
       helper_size="0"
       apply_no_weight="true"
       apply_with_weight="true"
       only_selected="false" />
    <inkscape:path-effect
       effect="bspline"
       id="path-effect6459-1-3"
       is_visible="true"
       weight="33.333333"
       steps="2"
       helper_size="0"
       apply_no_weight="true"
       apply_with_weight="true"
       only_selected="false" />
    <inkscape:path-effect
       effect="bspline"
       id="path-effect870-2"
       is_visible="true"
       weight="33.333333"
       steps="2"
       helper_size="0"
       apply_no_weight="true"
       apply_with_weight="true"
       only_selected="false" />
    <filter
       inkscape:label="Film Grain"
       inkscape:menu="Image Effects"
       inkscape:menu-tooltip="Adds a small scale graininess"
       style="color-interpolation-filters:sRGB;"
       id="filter3355">
      <feTurbulence
         type="fractalNoise"
         numOctaves="3"
         baseFrequency="0.77777777777777779"
         seed="0"
         result="result0"
         id="feTurbulence3345" />
      <feColorMatrix
         result="result4"
         values="0"
         type="saturate"
         id="feColorMatrix3347"
         baseFrequency="0.77800000000000002" />
      <feComposite
         in="SourceGraphic"
         in2="result4"
         operator="arithmetic"
         k1="-0.94999999999999996"
         k2="0.5"
         k3="0.5"
         result="result2"
         id="feComposite3349" />
      <feBlend
         result="result5"
         mode="normal"
         in="result2"
         in2="SourceGraphic"
         id="feBlend3351" />
      <feComposite
         in="result5"
         in2="SourceGraphic"
         operator="in"
         result="result3"
         id="feComposite3353" />
    </filter>
    <filter
       inkscape:label="Plastify"
       inkscape:menu="Bumps"
       inkscape:menu-tooltip="HSL edges detection bump with a wavy reflective surface effect and variable crumple"
       style="color-interpolation-filters:sRGB;"
       id="filter3473"
       y="-0.2"
       x="-0.2"
       width="1.4"
       height="1.4">
      <feMorphology
         radius="4"
         in="SourceGraphic"
         result="result0"
         id="feMorphology3467" />
      <feGaussianBlur
         in="result0"
         stdDeviation="8"
         result="result91"
         id="feGaussianBlur3469" />
      <feComposite
         operator="in"
         in="SourceGraphic"
         in2="result91"
         id="feComposite3471"
         result="fbSourceGraphic" />
      <feColorMatrix
         result="fbSourceGraphicAlpha"
         in="fbSourceGraphic"
         values="0 0 0 -1 0 0 0 0 -1 0 0 0 0 -1 0 0 0 0 1 0"
         id="feColorMatrix3489" />
      <feGaussianBlur
         id="feGaussianBlur3491"
         stdDeviation="1"
         result="result14"
         in="fbSourceGraphic" />
      <feFlood
         id="feFlood3493"
         flood-opacity="1"
         result="result15"
         flood-color="rgb(55,200,113)" />
      <feTurbulence
         id="feTurbulence3495"
         result="result5"
         numOctaves="1"
         baseFrequency="0.004 0.008"
         seed="25"
         type="fractalNoise" />
      <feDisplacementMap
         in2="result14"
         id="feDisplacementMap3497"
         yChannelSelector="B"
         result="result8"
         in="result5"
         xChannelSelector="R"
         scale="100" />
      <feGaussianBlur
         id="feGaussianBlur3499"
         stdDeviation="1"
         result="result17" />
      <feSpecularLighting
         id="feSpecularLighting3501"
         in="result8"
         lighting-color="rgb(255,255,255)"
         result="result2"
         surfaceScale="-10"
         specularConstant="1"
         specularExponent="50">
        <feDistantLight
           id="feDistantLight3503"
           azimuth="225"
           elevation="80" />
      </feSpecularLighting>
      <feBlend
         in2="fbSourceGraphic"
         id="feBlend3505"
         mode="screen"
         result="result9" />
      <feComposite
         in2="fbSourceGraphic"
         id="feComposite3507"
         operator="atop"
         result="result11" />
      <feDisplacementMap
         in2="result5"
         id="feDisplacementMap3509"
         result="result16"
         in="result11"
         scale="0"
         xChannelSelector="R" />
    </filter>
  </defs>
  <sodipodi:namedview
     id="base"
     pagecolor="#ffffff"
     bordercolor="#666666"
     borderopacity="1.0"
     inkscape:pageopacity="0.0"
     inkscape:pageshadow="2"
     inkscape:zoom="0.60019315"
     inkscape:cx="672.84719"
     inkscape:cy="362.73401"
     inkscape:document-units="mm"
     inkscape:current-layer="layer1"
     showgrid="false"
     showguides="true"
     inkscape:window-width="1366"
     inkscape:window-height="706"
     inkscape:window-x="-8"
     inkscape:window-y="-8"
     inkscape:window-maximized="1" />
  <metadata
     id="metadata5">
    <rdf:RDF>
      <cc:Work
         rdf:about="">
        <dc:format>image/svg+xml</dc:format>
        <dc:type
           rdf:resource="http://purl.org/dc/dcmitype/StillImage" />
        <dc:title></dc:title>
      </cc:Work>
    </rdf:RDF>
  </metadata>
  <g
     inkscape:label="Layer 1"
     inkscape:groupmode="layer"
     id="layer1"
     transform="translate(0,-87)">
    <rect
       style="fill:none;fill-opacity:1;stroke:#c3ceca;stroke-width:6;stroke-linejoin:round;stroke-miterlimit:5.69999981;stroke-dasharray:none;stroke-opacity:1"
       id="rect3743"
       width="283.6232"
       height="192.89441"
       x="6.7010474"
       y="95.489929" />
    <rect
       style="fill:none;fill-opacity:1;stroke:#797f7d;stroke-width:0.1;stroke-linejoin:round;stroke-miterlimit:5.69999981;stroke-dasharray:none;stroke-opacity:0.94974875"
       id="rect3743-4"
       width="283.6232"
       height="192.89441"
       x="6.7010474"
       y="95.489929" />
    <rect
       style="fill:none;fill-opacity:1;stroke:#797f7d;stroke-width:0.101;stroke-linejoin:round;stroke-miterlimit:5.69999981;stroke-dasharray:none;stroke-opacity:0.94974874"
       id="rect3743-4-2"
       width="286.25507"
       height="194.90294"
       x="5.2655916"
       y="94.438469" />
    <rect
       style="fill:none;fill-opacity:1;stroke:#797f7d;stroke-width:0.09878203;stroke-linejoin:round;stroke-miterlimit:5.69999981;stroke-dasharray:none;stroke-opacity:0.94974874"
       id="rect3743-4-1"
       width="280.62473"
       height="190.23538"
       x="8.1767988"
       y="96.795448" />
    <path
       style="fill:none;fill-opacity:1;stroke:#797f7d;stroke-width:0.40900001;stroke-linecap:butt;stroke-linejoin:round;stroke-miterlimit:5.69999981;stroke-dasharray:none;stroke-opacity:0.94974874;paint-order:markers fill stroke"
       d="M 4.5119123,93.288714 C 4.9926408,92.807986 5.9531628,92.720322 5.9531628,92.720322 H 291.37688 c 0,0 0.9275,0.05817 1.44936,0.750157 0.54097,0.717329 0.65745,1.391027 0.65745,1.391027 l -0.0726,193.463034 c 0,0 0.016,0.9111 -0.6107,1.88207 -0.78545,1.21691 -2.50585,1.23387 -2.50585,1.23387 L 17.555023,291.39117 C 7.4603794,290.99011 5.8199645,291.91345 4.2691744,290.2568 3.3437608,289.26821 4.0369524,287.78766 3.9136045,275.70025 V 94.712132 c 0,0 0.1288337,-0.953943 0.5983078,-1.423418 z"
       id="rect3743-4-3"
       inkscape:connector-curvature="0"
       sodipodi:nodetypes="sccsccsccsccs" />
    <path
       style="fill:none;stroke:#7c8381;stroke-width:0.26458332px;stroke-linecap:butt;stroke-linejoin:miter;stroke-opacity:1"
       d="m 12.41703,291.45781 c -0.0014,-1.02527 -0.0027,-2.0521 -0.01687,-2.99506 -0.01413,-0.94295 -0.04093,-1.79726 -0.294016,-2.29909 -0.253089,-0.50183 -0.732255,-0.6498 -1.257803,-0.67455 -0.525548,-0.0247 -1.0961111,0.0739 -1.2302368,-0.32835 -0.1341257,-0.40222 0.1689407,-1.30437 -0.3986011,-1.78368 -0.5675419,-0.47932 -2.0059608,-0.53572 -3.0424855,-0.58155 -1.0365248,-0.0458 -1.6711229,-0.0811 -2.3059728,-0.11636"
       id="path6457"
       inkscape:connector-curvature="0"
       inkscape:path-effect="#path-effect6459"
       inkscape:original-d="m 12.41703,291.45781 c -0.0011,-1.02527 -0.0025,-2.0521 -0.0041,-3.08043 -0.02662,-0.85759 -0.05342,-1.7119 -0.08053,-2.56752 -0.47924,-0.14835 -0.958408,-0.29632 -1.438429,-0.44421 -0.571211,0.0985 -1.1417728,0.19712 -1.7134241,0.29614 0.3035933,-0.9032 0.6066609,-1.80535 0.9095951,-2.70763 -1.4381639,-0.0567 -2.8765838,-0.11308 -4.3152885,-0.16922 -0.6343414,-0.0355 -1.2689371,-0.0708 -1.9038037,-0.10577"
       sodipodi:nodetypes="cccccccc" />
    <path
       transform="rotate(84.412868,112.65971,191.95847)"
       style="fill:none;stroke:#7c8381;stroke-width:0.26458332px;stroke-linecap:butt;stroke-linejoin:miter;stroke-opacity:1"
       d="m 12.41703,291.45781 c -0.0014,-1.02527 -0.0027,-2.0521 -0.01687,-2.99506 -0.01413,-0.94295 -0.04093,-1.79726 -0.294016,-2.29909 -0.253089,-0.50183 -0.732255,-0.6498 -1.257803,-0.67455 -0.525548,-0.0247 -1.0961111,0.0739 -1.2302368,-0.32835 -0.1341257,-0.40222 0.1689407,-1.30437 -0.3986011,-1.78368 -0.5675419,-0.47932 -2.0059608,-0.53572 -3.0424855,-0.58155 -1.0365248,-0.0458 -1.6711229,-0.0811 -2.3059728,-0.11636"
       id="path6457-4"
       inkscape:connector-curvature="0"
       inkscape:path-effect="#path-effect6459-1"
       inkscape:original-d="m 12.41703,291.45781 c -0.0011,-1.02527 -0.0025,-2.0521 -0.0041,-3.08043 -0.02662,-0.85759 -0.05342,-1.7119 -0.08053,-2.56752 -0.47924,-0.14835 -0.958408,-0.29632 -1.438429,-0.44421 -0.571211,0.0985 -1.1417728,0.19712 -1.7134241,0.29614 0.3035933,-0.9032 0.6066609,-1.80535 0.9095951,-2.70763 -1.4381639,-0.0567 -2.8765838,-0.11308 -4.3152885,-0.16922 -0.6343414,-0.0355 -1.2689371,-0.0708 -1.9038037,-0.10577"
       sodipodi:nodetypes="cccccccc" />
    <path
       transform="rotate(-89.580862,148.48688,145.65189)"
       style="fill:none;stroke:#7c8381;stroke-width:0.26458332px;stroke-linecap:butt;stroke-linejoin:miter;stroke-opacity:1"
       d="m 12.41703,291.45781 c -0.0014,-1.02527 -0.0027,-2.0521 -0.01687,-2.99506 -0.01413,-0.94295 -0.04093,-1.79726 -0.294016,-2.29909 -0.253089,-0.50183 -0.732255,-0.6498 -1.257803,-0.67455 -0.525548,-0.0247 -1.0961111,0.0739 -1.2302368,-0.32835 -0.1341257,-0.40222 0.1689407,-1.30437 -0.3986011,-1.78368 -0.5675419,-0.47932 -2.0059608,-0.53572 -3.0424855,-0.58155 -1.0365248,-0.0458 -1.6711229,-0.0811 -2.3059728,-0.11636"
       id="path6457-4-2"
       inkscape:connector-curvature="0"
       inkscape:path-effect="#path-effect6459-1-1"
       inkscape:original-d="m 12.41703,291.45781 c -0.0011,-1.02527 -0.0025,-2.0521 -0.0041,-3.08043 -0.02662,-0.85759 -0.05342,-1.7119 -0.08053,-2.56752 -0.47924,-0.14835 -0.958408,-0.29632 -1.438429,-0.44421 -0.571211,0.0985 -1.1417728,0.19712 -1.7134241,0.29614 0.3035933,-0.9032 0.6066609,-1.80535 0.9095951,-2.70763 -1.4381639,-0.0567 -2.8765838,-0.11308 -4.3152885,-0.16922 -0.6343414,-0.0355 -1.2689371,-0.0708 -1.9038037,-0.10577"
       sodipodi:nodetypes="cccccccc" />
    <path
       transform="matrix(-1.0589168,8.5599883e-5,-9.2038294e-5,-0.98484177,297.69132,379.65428)"
       style="fill:none;stroke:#7c8381;stroke-width:0.26458332px;stroke-linecap:butt;stroke-linejoin:miter;stroke-opacity:1"
       d="m 12.41703,291.45781 c -0.0014,-1.02527 -0.0027,-2.0521 -0.01687,-2.99506 -0.01413,-0.94295 -0.04093,-1.79726 -0.294016,-2.29909 -0.253089,-0.50183 -0.732255,-0.6498 -1.257803,-0.67455 -0.525548,-0.0247 -1.0961111,0.0739 -1.2302368,-0.32835 -0.1341257,-0.40222 0.1689407,-1.30437 -0.3986011,-1.78368 -0.5675419,-0.47932 -2.0059608,-0.53572 -3.0424855,-0.58155 -1.0365248,-0.0458 -1.6711229,-0.0811 -2.3059728,-0.11636"
       id="path6457-4-8"
       inkscape:connector-curvature="0"
       inkscape:path-effect="#path-effect6459-1-3"
       inkscape:original-d="m 12.41703,291.45781 c -0.0011,-1.02527 -0.0025,-2.0521 -0.0041,-3.08043 -0.02662,-0.85759 -0.05342,-1.7119 -0.08053,-2.56752 -0.47924,-0.14835 -0.958408,-0.29632 -1.438429,-0.44421 -0.571211,0.0985 -1.1417728,0.19712 -1.7134241,0.29614 0.3035933,-0.9032 0.6066609,-1.80535 0.9095951,-2.70763 -1.4381639,-0.0567 -2.8765838,-0.11308 -4.3152885,-0.16922 -0.6343414,-0.0355 -1.2689371,-0.0708 -1.9038037,-0.10577"
       sodipodi:nodetypes="cccccccc" />
    <path
       style="fill:#808080;fill-opacity:0.94901961;stroke:#000004;stroke-width:0;stroke-linecap:butt;stroke-linejoin:round;stroke-miterlimit:4;stroke-dasharray:none;stroke-opacity:0.4572864;paint-order:markers fill stroke"
       d="m 1102.059,752.76484 c -0.013,4.0621 -0.025,8.12421 -0.038,12.18631 -8.6476,0.0251 -17.2952,0.0502 -25.9427,0.0754 -0.1134,2.25734 -0.3016,4.51256 -0.3443,6.77253 7.7129,-0.0485 15.4316,0.11722 23.1406,-0.14554 3.3334,-0.54206 6.6646,-2.47924 7.9329,-5.74944 0.7237,-1.65233 1.4607,-3.38239 1.2542,-5.22363 0.028,-6.70063 0.055,-13.40126 0.083,-20.10189 -2.0162,0 -4.0324,0 -6.0486,0 -0.013,4.0621 -0.025,8.1242 -0.038,12.1863 z"
       id="path870"
       inkscape:connector-curvature="0"
       transform="matrix(0.26458333,0,0,0.26458333,0,87)" />
    <path
       style="fill:#808080;fill-opacity:0.94901961;stroke:#000004;stroke-width:0;stroke-linecap:butt;stroke-linejoin:round;stroke-miterlimit:4;stroke-dasharray:none;stroke-opacity:0.4572864;paint-order:markers fill stroke"
       d="m 1097.5297,750.96083 c 0,3.46076 0,6.92152 0,10.38229 -7.0574,0 -14.1148,0 -21.1721,0 -0.2804,1.0033 -0.1409,2.06435 -0.1815,3.09259 8.4432,0 16.8865,0 25.3298,0 0,-7.95239 0,-15.90478 0,-23.85717 -1.3254,0 -2.6508,0 -3.9762,0 0,3.46076 0,6.92153 0,10.38229 z"
       id="path872"
       inkscape:connector-curvature="0"
       transform="matrix(0.26458333,0,0,0.26458333,0,87)" />
    <path
       style="fill:#808080;fill-opacity:0.94901961;stroke:#000004;stroke-width:0;stroke-linecap:butt;stroke-linejoin:round;stroke-miterlimit:4;stroke-dasharray:none;stroke-opacity:0.4572864;paint-order:markers fill stroke"
       d="m 1094.9732,740.58055 c -1.0638,0.009 -2.1281,0.0535 -3.1843,0.18696 -0.026,5.16497 -0.051,10.32994 -0.076,15.49491 -4.9824,0.0613 -9.9755,-0.0357 -14.9507,0.18553 -0.1375,1.48477 -0.4104,2.96045 -0.4387,4.45337 6.9216,0 13.8431,0 20.7646,0 0,-6.77426 0,-13.54852 0,-20.32278 -0.7049,9.3e-4 -1.4098,-0.002 -2.1147,0.002 z"
       id="path874"
       inkscape:connector-curvature="0"
       transform="matrix(0.26458333,0,0,0.26458333,0,87)" />
    <path
       style="fill:#808080;fill-opacity:0.94901961;stroke:#000004;stroke-width:0;stroke-linecap:butt;stroke-linejoin:round;stroke-miterlimit:4;stroke-dasharray:none;stroke-opacity:0.4572864;paint-order:markers fill stroke"
       d="m 1090.6694,740.94095 c -2.103,0.16779 -4.0822,1.87417 -4.0521,4.07917 -0.2874,1.75818 0.1098,3.75611 -0.8856,5.32259 -1.2501,1.1158 -3.1093,0.50134 -4.6245,0.74928 -1.6339,-0.0298 -3.1603,1.02828 -3.5804,2.63181 -0.1553,0.60193 -0.5711,1.29584 -0.5109,1.87938 3.1325,0.2886 6.3094,0.0763 9.4587,0.14381 1.6233,0 3.2466,0 4.8699,0 0,-4.96909 0,-9.93819 0,-14.90728 -0.225,0.0338 -0.45,0.0675 -0.6751,0.10124 z"
       id="path876"
       inkscape:connector-curvature="0"
       transform="matrix(0.26458333,0,0,0.26458333,0,87)" />
    <path
       style="fill:#808080;fill-opacity:0.94901961;stroke:#000004;stroke-width:0;stroke-linecap:butt;stroke-linejoin:round;stroke-miterlimit:4;stroke-dasharray:none;stroke-opacity:0.4572864;paint-order:markers fill stroke"
       d="m 1076.3904,38.249871 c 0.1743,1.98638 1.4384,3.974349 3.4958,4.382616 2.0087,0.440796 4.1544,0.02857 6.1104,0.679095 1.5549,0.599534 1.1298,2.546267 1.2855,3.856994 -0.066,1.578469 0.3511,3.444645 1.9719,4.107477 0.5465,0.108058 1.1864,0.849133 1.7255,0.513995 0.4636,-1.722203 0.1538,-3.576396 0.2477,-5.349052 0,-3.037082 0,-6.074169 0,-9.111253 -4.9913,0 -9.9825,0 -14.9737,0 0.046,0.306709 0.093,0.613418 0.1392,0.920128 z"
       id="path878"
       inkscape:connector-curvature="0"
       transform="matrix(0.26458333,0,0,0.26458333,0,87)" />
    <path
       style="fill:#808080;fill-opacity:0.94901961;stroke:#000004;stroke-width:0;stroke-linecap:butt;stroke-linejoin:round;stroke-miterlimit:4;stroke-dasharray:none;stroke-opacity:0.4572864;paint-order:markers fill stroke"
       d="m 1076.0582,33.979429 c 0.014,0.921262 4e-4,1.851266 0.1838,2.758659 5.1661,0.02556 10.3322,0.05097 15.4983,0.07622 0.026,5.119811 0.051,10.239623 0.076,15.359437 1.6601,0.215747 3.452,0.516103 5.0525,0.547935 0.1727,-6.797544 0.07,-13.599596 0.099,-20.399001 -6.9706,0 -13.9413,0 -20.9119,0 6e-4,0.55225 0,1.104499 0,1.656748 z"
       id="path880"
       inkscape:connector-curvature="0"
       transform="matrix(0.26458333,0,0,0.26458333,0,87)" />
    <path
       style="fill:#808080;fill-opacity:0.94901961;stroke:#000004;stroke-width:0;stroke-linecap:butt;stroke-linejoin:round;stroke-miterlimit:4;stroke-dasharray:none;stroke-opacity:0.4572864;paint-order:markers fill stroke"
       d="m 1075.91,28.898735 c 0.022,0.9962 0.1159,1.988941 0.1902,2.982147 7.1523,0 14.3047,0 21.4571,0 0,6.966108 0,13.932217 0,20.898325 1.3245,0.07397 2.6501,0.127829 3.9762,0.160785 0,-8.197836 0,-16.395671 0,-24.593506 -8.5414,0 -17.0829,0 -25.6243,0 3e-4,0.184083 5e-4,0.368166 8e-4,0.552249 z"
       id="path882"
       inkscape:connector-curvature="0"
       transform="matrix(0.26458333,0,0,0.26458333,0,87)" />
    <path
       style="fill:#808080;fill-opacity:0.94901961;stroke:#000004;stroke-width:0;stroke-linecap:butt;stroke-linejoin:round;stroke-miterlimit:4;stroke-dasharray:none;stroke-opacity:0.4572864;paint-order:markers fill stroke"
       d="m 1075.9092,25.179393 c 0,0.907856 0,1.815711 0,2.723567 8.7132,0.02512 17.4265,0.05024 26.1398,0.07536 0.061,8.325407 -0.036,16.657384 0.1849,24.978356 2.0082,0.13097 4.0187,0.239744 6.031,0.27785 0.022,-7.763018 0.2633,-15.529646 0.078,-23.290831 -0.6748,-3.143854 -2.6625,-6.573228 -6.0518,-7.252012 -4.4566,-0.412531 -8.9479,-0.159693 -13.4188,-0.235834 -4.3211,-5.3e-5 -8.6423,-7e-6 -12.9634,-2.3e-5 0,0.907856 0,1.815712 0,2.723568 z"
       id="path884"
       inkscape:connector-curvature="0"
       transform="matrix(0.26458333,0,0,0.26458333,0,87)" />
    <path
       style="fill:#808080;fill-opacity:0.94901961;stroke:#000004;stroke-width:0;stroke-linecap:butt;stroke-linejoin:round;stroke-miterlimit:4;stroke-dasharray:none;stroke-opacity:0.4572864;paint-order:markers fill stroke"
       d="m 31.113941,45.503034 c 0.03615,2.72214 -0.05954,5.463225 0.139788,8.173291 1.906163,-0.393967 4.124276,-1.320876 4.530459,-3.459613 0.419196,-2.117411 -0.335906,-4.348684 0.316105,-6.420474 0.844808,-1.468471 2.852918,-1.137985 4.273318,-1.454257 1.586843,-0.143317 3.230822,-1.043508 3.568049,-2.722129 0.217753,-0.744538 0.452122,-1.505757 0.426267,-2.290109 -4.417995,0 -8.83599,0 -13.253986,0 0,2.72443 0,5.44886 0,8.173291 z"
       id="path886"
       inkscape:connector-curvature="0"
       transform="matrix(0.26458333,0,0,0.26458333,0,87)" />
    <path
       style="fill:#808080;fill-opacity:0.94901961;stroke:#000004;stroke-width:0;stroke-linecap:butt;stroke-linejoin:round;stroke-miterlimit:4;stroke-dasharray:none;stroke-opacity:0.4572864;paint-order:markers fill stroke"
       d="m 25.517814,43.447918 c 0,3.708412 0,7.416824 0,11.125236 1.711093,-0.304286 3.456178,-0.408683 5.154328,-0.78149 0,-5.683662 0,-11.367325 0,-17.050987 4.61435,0 9.228701,0 13.843052,0 0,-1.472666 0,-2.945331 0,-4.417996 -6.33246,0 -12.66492,0 -18.99738,0 0,3.708413 0,7.416825 0,11.125237 z"
       id="path888"
       inkscape:connector-curvature="0"
       transform="matrix(0.26458333,0,0,0.26458333,0,87)" />
    <path
       style="fill:#808080;fill-opacity:0.94901961;stroke:#000004;stroke-width:0;stroke-linecap:butt;stroke-linejoin:round;stroke-miterlimit:4;stroke-dasharray:none;stroke-opacity:0.4572864;paint-order:markers fill stroke"
       d="m 20.21622,41.750614 c 0,4.468044 0,8.936086 0,13.404128 1.602458,-0.323793 3.256337,-0.296437 4.859794,-0.618116 0,-7.551914 0,-15.103829 0,-22.655744 6.491999,0 12.983998,0 19.475996,0 -0.264192,-1.158125 -0.159107,-2.356848 -0.184083,-3.534396 -8.05057,0 -16.101138,0 -24.151707,0 0,4.468042 0,8.936085 0,13.404128 z"
       id="path890"
       inkscape:connector-curvature="0"
       transform="matrix(0.26458333,0,0,0.26458333,0,87)" />
    <path
       style="fill:#808080;fill-opacity:0.94901961;stroke:#000004;stroke-width:0;stroke-linecap:butt;stroke-linejoin:round;stroke-miterlimit:4;stroke-dasharray:none;stroke-opacity:0.4572864;paint-order:markers fill stroke"
       d="m 29.438785,22.457839 c -2.99162,0.105982 -6.049414,-0.221712 -8.990233,0.439578 -1.787445,0.431203 -3.325949,1.659787 -3.965185,3.410333 -1.104818,2.313184 -0.673335,4.981684 -0.821192,7.462285 -0.02356,7.281315 -0.0055,14.562707 -0.01122,21.844052 1.312145,-0.260558 2.659389,-0.257517 3.976196,-0.490983 0,-9.072806 0,-18.145612 0,-27.218418 8.212984,0 16.425968,0 24.638951,0 -0.08719,-1.815216 -0.209349,-3.630593 -0.192711,-5.448861 -4.878203,5.09e-4 -9.756408,-0.0015 -14.634609,0.002 z"
       id="path892"
       inkscape:connector-curvature="0"
       transform="matrix(0.26458333,0,0,0.26458333,0,87)" />
    <path
       style="fill:#808080;fill-opacity:0.94901961;stroke:#000004;stroke-width:0;stroke-linecap:butt;stroke-linejoin:round;stroke-miterlimit:4;stroke-dasharray:none;stroke-opacity:0.4572864;paint-order:markers fill stroke"
       d="m 15.377997,748.90701 c -0.02387,4.03967 -0.292848,8.07831 -0.2411,12.11613 0.194975,2.37832 0.01431,5.16329 1.95221,6.92238 2.734267,2.88817 6.951947,3.22001 10.694943,3.29854 6.190369,0.13891 12.382534,0.0202 18.571975,-0.10901 -0.02838,-2.04639 -0.05676,-4.09278 -0.08514,-6.13917 -8.881245,0 -17.762489,0 -26.643733,0 0,-8.18327 0,-16.36653 0,-24.54979 -1.354821,-0.1118 -2.712601,-0.21461 -4.073127,-0.19099 -0.05868,2.88397 -0.117353,5.76794 -0.17603,8.65191 z"
       id="path894"
       inkscape:connector-curvature="0"
       transform="matrix(0.26458333,0,0,0.26458333,0,87)" />
    <path
       style="fill:#808080;fill-opacity:0.94901961;stroke:#000004;stroke-width:0;stroke-linecap:butt;stroke-linejoin:round;stroke-miterlimit:4;stroke-dasharray:none;stroke-opacity:0.4572864;paint-order:markers fill stroke"
       d="m 20.21622,752.48426 c 0,4.02328 0,8.04655 0,12.06982 8.688724,0 17.377448,0 26.066172,0 0,-1.0302 0,-2.06039 0,-3.09059 -7.044248,-0.0254 -14.088496,-0.0506 -21.132744,-0.0756 -0.02506,-6.88922 -0.05028,-13.77843 -0.07565,-20.66765 -1.615566,-0.15439 -3.237108,-0.22877 -4.857781,-0.30546 0,4.02317 0,8.04635 0,12.06952 z"
       id="path896"
       inkscape:connector-curvature="0"
       transform="matrix(0.26458333,0,0,0.26458333,0,87)" />
    <path
       style="fill:#808080;fill-opacity:0.94901961;stroke:#000004;stroke-width:0;stroke-linecap:butt;stroke-linejoin:round;stroke-miterlimit:4;stroke-dasharray:none;stroke-opacity:0.4572864;paint-order:markers fill stroke"
       d="m 25.517814,750.77085 c 0,3.36719 0,6.73438 0,10.10156 6.921526,0 13.843052,0 20.764578,0 0.01873,-1.52413 -0.104487,-3.04483 -0.192138,-4.56526 -5.138508,0 -10.277015,0 -15.415524,0 -0.02526,-5.0316 -0.05066,-10.06321 -0.07622,-15.09481 -1.68391,-0.26269 -3.380762,-0.42829 -5.080695,-0.54305 0,3.36719 0,6.73438 0,10.10156 z"
       id="path898"
       inkscape:connector-curvature="0"
       transform="matrix(0.26458333,0,0,0.26458333,0,87)" />
    <path
       style="fill:#808080;fill-opacity:0.94901961;stroke:#000004;stroke-width:0;stroke-linecap:butt;stroke-linejoin:round;stroke-miterlimit:4;stroke-dasharray:none;stroke-opacity:0.4572864;paint-order:markers fill stroke"
       d="m 31.113941,748.51756 c 0,2.40018 0,4.80035 0,7.20053 4.965739,0 9.931477,0 14.897215,0 -0.271574,-1.86471 -1.038002,-4.06608 -3.065846,-4.6156 -2.034893,-0.62756 -4.302876,-0.0386 -6.276948,-0.86605 -1.39945,-0.94228 -0.821981,-2.85393 -1.062217,-4.26929 -0.01225,-1.3108 -0.209713,-2.8028 -1.492224,-3.50046 -0.890661,-0.6191 -1.946817,-0.93856 -2.99998,-1.14966 0,2.40018 0,4.80035 0,7.20053 z"
       id="path900"
       inkscape:connector-curvature="0"
       transform="matrix(0.26458333,0,0,0.26458333,0,87)" />
    <path
       style="fill:none;stroke:#838483;stroke-width:0.26458332px;stroke-linecap:butt;stroke-linejoin:miter;stroke-opacity:1"
       d="m 20.167987,92.675147 c 1.515819,-1.984302 3.031402,-3.968295 4.463733,-3.985522 1.43233,-0.01723 2.781589,1.931928 4.130918,3.881183"
       id="path868"
       inkscape:connector-curvature="0"
       inkscape:path-effect="#path-effect870"
       inkscape:original-d="m 20.167987,92.675147 c 1.515918,-1.984227 3.031501,-3.96822 4.54675,-5.95198 1.349677,1.94898 2.698937,3.898134 4.047901,5.847641"
       transform="matrix(0.74142581,0,0,1.0070371,9.0594254,-0.63761258)"
       sodipodi:nodetypes="ccc" />
    <ellipse
       style="fill:#808080;fill-opacity:0.94901961;stroke:#838483;stroke-width:0;stroke-linecap:butt;stroke-linejoin:round;stroke-miterlimit:4;stroke-dasharray:none;stroke-opacity:1;paint-order:markers fill stroke"
       id="path873"
       cx="27.318108"
       cy="89.784157"
       rx="1.2122834"
       ry="0.99186826" />
    <path
       style="fill:none;stroke:#c3ceca;stroke-width:0.2;stroke-linecap:butt;stroke-linejoin:miter;stroke-opacity:1;stroke-miterlimit:4;stroke-dasharray:none"
       d="m 27.33343,89.193841 0.02923,1.266339"
       id="path879"
       inkscape:connector-curvature="0"
       sodipodi:nodetypes="cc" />
    <path
       style="fill:none;stroke:#c3ceca;stroke-width:0.2;stroke-linecap:butt;stroke-linejoin:miter;stroke-opacity:1;stroke-miterlimit:4;stroke-dasharray:none"
       d="m 26.632073,89.817269 1.392973,-0.0097"
       id="path881"
       inkscape:connector-curvature="0" />
    <path
       style="fill:none;stroke:#838483;stroke-width:0.26458332px;stroke-linecap:butt;stroke-linejoin:miter;stroke-opacity:1"
       d="m 20.167987,92.675147 c 1.515819,-1.984302 3.031402,-3.968295 4.463733,-3.985522 1.43233,-0.01723 2.781589,1.931928 4.130918,3.881183"
       id="path868-9"
       inkscape:connector-curvature="0"
       inkscape:path-effect="#path-effect870-2"
       inkscape:original-d="m 20.167987,92.675147 c 1.515918,-1.984227 3.031501,-3.96822 4.54675,-5.95198 1.349677,1.94898 2.698937,3.898134 4.047901,5.847641"
       transform="matrix(0.74142581,0,0,1.0070371,253.21036,-0.60565239)"
       sodipodi:nodetypes="ccc" />
    <ellipse
       style="fill:#808080;fill-opacity:0.94901961;stroke:#838483;stroke-width:0;stroke-linecap:butt;stroke-linejoin:round;stroke-miterlimit:4;stroke-dasharray:none;stroke-opacity:1;paint-order:markers fill stroke"
       id="path873-3"
       cx="271.46902"
       cy="89.816116"
       rx="1.2122834"
       ry="0.99186826" />
    <path
       style="fill:none;stroke:#c3ceca;stroke-width:0.2;stroke-linecap:butt;stroke-linejoin:miter;stroke-miterlimit:4;stroke-dasharray:none;stroke-opacity:1"
       d="m 271.48437,89.225802 0.0292,1.266339"
       id="path879-0"
       inkscape:connector-curvature="0"
       sodipodi:nodetypes="cc" />
    <path
       style="fill:none;stroke:#c3ceca;stroke-width:0.2;stroke-linecap:butt;stroke-linejoin:miter;stroke-miterlimit:4;stroke-dasharray:none;stroke-opacity:1"
       d="m 270.78301,89.84923 1.39297,-0.0097"
       id="path881-7"
       inkscape:connector-curvature="0" />
    <path
       style="fill:#b28657;fill-opacity:1;stroke:#b28657;stroke-width:1.8897638;stroke-linecap:butt;stroke-linejoin:miter;stroke-miterlimit:4;stroke-dasharray:none;stroke-opacity:1;paint-order:markers fill stroke;filter:url(#filter3355)"
       d="M 37.572266 43.925781 L 37.572266 396.3125 L 37.572266 748.69922 L 565.73633 748.69922 L 565.73633 43.925781 L 37.572266 43.925781 z "
       transform="matrix(0.26458333,0,0,0.26458333,0,87)"
       id="path916" />
    <path
       style="fill:#ffffff;fill-opacity:1;stroke:#f6f6f6;stroke-width:1.13385828;stroke-linecap:butt;stroke-linejoin:miter;stroke-miterlimit:4;stroke-dasharray:none;stroke-opacity:1;paint-order:markers fill stroke;filter:url(#filter3473)"
       d="m 567.23151,396.72671 c 0,117.46218 0,234.92437 0,352.38656 167.13784,-0.40685 334.29015,0.90558 501.41849,-0.89819 4.7731,-1.02302 12.3652,1.20741 15.7881,-2.32994 1.6818,-233.84154 0.6726,-467.69754 0.9599,-701.545001 -172.72214,0 -345.4443,0 -518.16649,0 0,117.462191 0,234.924381 0,352.386571 z"
       id="path3359"
       inkscape:connector-curvature="0"
       transform="matrix(0.26458333,0,0,0.26458333,0,87)" />
  </g>
</svg>
